<?xml version="1.0" encoding="UTF-8" standalone="no"?>
<svg
   version="1.1"
   id="Layer_1"
   x="0px"
   y="0px"
   width="100%"
   viewBox="0 0 1024 1024"
   enable-background="new 0 0 1024 1024"
   xml:space="preserve"
   sodipodi:docname="logo of a sheep looking confused.svg"
   inkscape:version="1.2.1 (9c6d41e4, 2022-07-14)"
   xmlns:inkscape="http://www.inkscape.org/namespaces/inkscape"
   xmlns:sodipodi="http://sodipodi.sourceforge.net/DTD/sodipodi-0.dtd"
   xmlns="http://www.w3.org/2000/svg"
   xmlns:svg="http://www.w3.org/2000/svg"><defs
   id="defs129" /><sodipodi:namedview
   id="namedview127"
   pagecolor="#ffffff"
   bordercolor="#666666"
   borderopacity="1.0"
   inkscape:showpageshadow="2"
   inkscape:pageopacity="0.0"
   inkscape:pagecheckerboard="0"
   inkscape:deskcolor="#d1d1d1"
   showgrid="false"
   inkscape:zoom="0.62421478"
   inkscape:cx="942.78447"
   inkscape:cy="459.77764"
   inkscape:window-width="1792"
   inkscape:window-height="986"
   inkscape:window-x="0"
   inkscape:window-y="25"
   inkscape:window-maximized="0"
   inkscape:current-layer="Layer_1" />
<path
   id="path118"
   d="m 538.86133,200.0625 c -22.59533,0.27406 -44.63996,4.23612 -65.04102,14.56445 -7.98221,4.04113 -16.44663,7.92168 -23.00586,13.76758 -7.31342,6.51811 -15.30184,12.52183 -21.1914,20.73242 -5.11654,7.13287 -5.92172,6.85881 -14.08203,3.77344 -2.17227,-0.82131 -4.41693,-1.52455 -6.6875,-2 -17.70917,-3.70829 -35.35639,-5.37845 -53.36133,-1.08203 -10.06482,2.40169 -20.58726,4.33593 -29.42969,9.08008 -14.03196,7.52838 -27.65509,15.7838 -38.21289,28.92187 -9.57657,11.91708 -17.2219,24.36392 -19.69531,39.07031 -1.44898,8.61533 -4.80205,12.94126 -12.9043,14.33985 -0.97709,0.16868 -1.94257,0.47242 -2.875,0.81836 -14.78977,5.48737 -30.00589,9.74674 -44.59961,15.83203 -7.66668,3.19687 -15.23858,6.88471 -23.10547,9.30469 -14.08504,4.33277 -26.63869,11.88259 -40.11328,17.4414 -9.5166,3.92599 -18.54181,8.96888 -27.78125,13.48633 -14.78238,7.22751 -29.198445,14.37555 -40.656249,26.7793 -8.951481,9.69046 -13.888143,20.97851 -16.697266,33.42773 -1.595663,7.07153 -0.625999,14.35913 1.039063,21.26563 4.050793,16.80215 11.959651,32.1104 20.765624,46.75976 11.35198,18.88482 23.359438,37.41443 38.236328,53.86719 3.32019,3.67181 5.43214,8.7402 9.27344,11.57617 8.94249,6.60224 16.26914,14.943 25.42969,21.4336 12.05303,8.54007 24.80077,14.50226 38.79687,18.59961 21.62662,6.33103 42.27823,2.40249 61.03711,-8.13477 15.9729,-8.97244 28.54089,-22.06915 35.5,-40.15625 6.11774,-15.90033 6.18374,-31.71313 3.39258,-47.91406 -1.65928,-9.63095 -5.24411,-18.8682 -5.81836,-28.75977 -0.22727,-3.91507 -1.45465,-7.40024 -6.36328,-8.26172 -17.78321,-3.12109 -29.2797,-15.11657 -37.30664,-29.75195 -15.21178,-27.73517 -17.08361,-56.34133 -2.21289,-85.3457 5.14783,-10.04053 12.67956,-17.62216 20.85156,-24.88086 1.05191,-0.93432 2.01151,-2.33622 4.24414,-1.73438 0.44651,1.5234 0.915,3.25065 1.45898,4.95313 3.35751,10.50794 7.60621,20.19702 16.23829,27.97461 9.43198,8.49826 19.68676,12.06784 32.25,11.47461 19.05838,-0.8999 32.87704,-20.64935 24.28906,-37.90625 -2.50644,-5.03652 -4.84631,-9.73358 -9.0586,-13.89844 -12.48874,-12.3482 -26.48285,-19.02356 -44.30859,-15.16797 -0.85489,0.18488 -1.63644,0.25268 -2.51953,-0.69141 2.54675,-17.13935 12.38513,-30.63089 24.57226,-41.87695 11.186,-10.32227 24.39734,-18.02387 39.61133,-22.17969 24.58035,-6.71427 48.43515,-7.1058 71.8418,4.24219 5.87695,2.84925 13.06665,2.7623 16.81445,-4.26367 5.75006,-10.77945 14.87006,-18.7976 24.02539,-26.32422 10.77869,-8.86113 23.20581,-15.41878 36.80469,-19.2168 15.87851,-4.43463 31.87345,-7.32811 48.59766,-5.85742 14.44068,1.26988 28.36279,4.95093 41.22265,10.7168 12.59855,5.6487 24.30198,13.75864 33.69727,24.4707 2.46857,2.81453 2.4309,4.46267 -0.61719,7.19531 -11.97452,10.73532 -18.12443,24.03946 -15.36719,40.39844 1.23236,7.31174 3.55821,14.45554 10.77149,18.22266 4.95316,2.58676 9.92105,5.03748 15.78906,5.70898 9.54355,1.09214 21.31265,-5.57413 24.95703,-14.50586 5.27374,-12.92475 2.04699,-25.4429 -1.07422,-38.05078 -1.09607,-4.42753 -5.16398,-7.68127 -5.23828,-12.69531 9.54831,-2.15482 18.89005,-2.7367 27.72852,1.02148 12.50934,5.31909 22.64382,13.24197 28.75976,26.15039 7.16876,15.13052 8.91949,30.37379 4.33008,46.39454 -1.64911,5.75699 -3.22577,11.54565 -5.19922,17.19335 -1.17041,3.34931 -0.12743,5.28147 2.58399,7.09571 2.74436,1.83628 5.73492,3.5144 7.36914,6.59765 10.68203,20.15363 6.91141,41.89707 -16.89453,52.75782 -4.87805,2.22541 -9.71595,2.79807 -15.27149,-1.24414 -6.88004,-5.00595 -13.71737,-10.54175 -22.07812,-13.39844 -18.67529,-6.38101 -37.28936,-8.84952 -57.1875,-4.85352 -16.10031,3.23331 -29.99213,10.31155 -42.36328,19.875 -11.97013,9.25336 -21.26313,21.48118 -28.45118,35.16602 -4.14248,7.88669 -7.0379,16.06357 -9.52734,24.53711 -2.73187,9.29886 -4.29108,18.82812 -4.80273,28.37695 -0.85285,15.91574 2.44995,31.36663 7.30273,46.50195 4.12647,12.87003 10.92098,24.59085 19.49609,34.53907 9.19137,10.66311 19.97214,20.13379 33.16016,26.47461 10.32937,4.96634 20.99601,9.01563 32.17188,10.17578 25.98215,2.69736 49.76131,-3.84564 70.5996,-20.01758 1.05347,-0.81757 2.07673,-1.94025 3.5293,-1.23047 1.96308,0.95923 0.85498,2.61457 0.58203,3.9668 -1.21308,6.00815 -2.62104,11.97946 -3.74219,18.0039 -2.70871,14.55472 -7.32032,28.61419 -11.21289,42.84961 -4.99125,18.25354 -11.29061,36.17761 -18.92968,53.44727 -6.24133,14.10998 -12.61026,28.26065 -20.68164,41.55078 -7.67963,12.64512 -17.2919,23.86325 -25.58008,36.04492 -0.37928,0.55743 -0.922,1.48844 -2.0625,0.70899 1.11914,-3.27875 2.71069,-6.48145 3.28515,-9.85743 3.59656,-21.13874 3.37388,-42.10131 -4.97656,-62.22265 -2.91156,-7.01581 -5.98904,-14.54475 -11.00976,-19.97071 -7.90595,-8.54398 -16.69625,-16.22433 -26.84961,-22.6582 -27.755,-17.58771 -57.89881,-20.03238 -88.85352,-14.96289 -23.1987,3.79938 -43.17102,14.49945 -58.86133,33.3125 -9.78482,11.73227 -14.77792,24.99839 -18.42773,39.03516 -2.31216,8.89206 -4.25128,18.11642 -3.34375,27.54101 0.0351,0.36493 -0.4259,0.77894 -0.70117,1.2461 -5.54953,-2.93457 -6.09205,-8.90573 -8.94727,-13.40039 -7.53092,-11.85501 -12.73965,-24.71063 -18.05273,-37.57422 -7.87375,-19.06317 -14.49835,-38.51874 -20.55078,-58.25782 -5.61673,-18.31799 -9.60605,-36.93805 -13.66016,-55.58203 -0.62808,-2.88846 -1.60496,-5.94836 -0.74219,-9.37109 0.91842,0.41498 1.71235,0.51447 2.03516,0.95703 4.61524,6.32804 10.95185,10.30604 17.63672,14.20899 15.64268,9.13291 32.10321,13.32018 50.34961,12.8457 19.47684,-0.50647 36.38956,-7.45377 51.78125,-18.18555 18.42944,-12.84995 31.12305,-30.60449 39.59179,-51.39648 3.16517,-7.77087 4.24011,-15.98929 5.74414,-24.15039 2.2179,-12.03446 2.87351,-24.02067 1.21485,-36.19727 -3.31558,-24.34079 -11.2685,-46.35806 -28.13672,-65.05273 -8.34623,-9.24994 -18.19305,-15.83903 -28.66211,-21.82032 -10.87649,-6.21402 -22.92529,-8.31583 -35.36133,-9.20703 -24.38608,-1.74756 -46.34247,4.11041 -65.51953,19.52344 -20.61924,16.61594 -0.72175,0.6316 -20.29153,17.07277 -11.27241,18.99771 -11.10374,18.22093 -12.15183,20.5034 -5.60633,12.20938 -8.59323,24.95975 -9.87109,38.38281 -1.74915,18.37345 -1.51508,36.5749 3.90039,54.19336 3.77497,12.28135 6.32952,24.7814 8.20898,37.33399 2.65732,17.74798 5.63372,35.46673 10.10156,52.75976 5.09506,19.72077 10.65573,39.38325 17.87891,58.53516 5.21805,13.8353 10.79327,27.48478 16.92383,40.92383 2.44763,5.36539 4.92816,10.71549 7.52734,16.36328 14.70258,23.3653 -10.07045,-20.60164 12.37305,20.30664 4.62683,7.29959 9.50351,14.42691 15.21289,20.9707 8.87991,10.17771 19.06876,19.02805 28.57813,28.56446 13.51685,13.55524 29.69849,22.24078 48.33789,26.38086 21.37479,4.74758 42.85162,4.914 64.32617,0.86523 24.14773,-4.55273 47.28496,-11.69067 66.65234,-27.75195 2.94696,-2.44403 6.61453,-3.76124 9.2832,-6.67774 7.0296,-7.68228 14.67304,-14.82865 20.58985,-23.46875 3.54465,-5.17618 8.31464,-9.45089 10.58008,-15.60351 l 13.94726,-24.4668 c 0.69562,-1.50452 1.37457,-3.00165 2.07617,-4.48828 4.67865,-9.9133 10.16913,-19.53421 13.87305,-29.79883 7.32804,-20.30871 15.30299,-40.40581 20.58594,-61.44531 4.56968,-18.19922 9.87484,-36.23834 12.79101,-54.78711 2.73736,-17.41156 6.35718,-34.45361 13.00782,-50.89453 6.97226,-17.23611 8.11309,-35.38033 6.42968,-53.80664 -0.7641,-8.36395 -0.89313,-16.78607 -1.32031,-25.38086 -4.5599,-14.74226 -2.44774,-8.23262 -5.83216,-18.25775 4.83844,-4.76471 10.05301,-8.76383 15.57617,-12.12891 17.13837,-10.44181 35.63617,-17.95005 55.34766,-21.45313 11.41892,-2.02936 23.26694,-1.52856 34.10547,4.08008 26.7569,16.10369 0.34286,-0.0266 26.85742,17.25196 6.89505,7.67971 16.10101,13.50766 19.77539,23.77148 3.19824,8.93393 5.7395,17.98239 4.19531,27.75781 -2.50024,15.82868 -7.8157,30.55002 -16.74609,43.8418 -8.62991,12.84451 -18.98057,23.88492 -33.23438,30.80078 -15.52021,7.53031 -28.19406,2.52731 -35.99804,-9.07227 -8.67383,-12.89252 -14.74094,-27.41466 -23.38086,-40.40429 6.50906,-3.90435 18.21633,-0.85654 22.06054,5.3457 4.4458,7.17251 8.87882,14.41146 14.03125,21.07031 6.62128,8.55704 19.67709,11.86234 29.38672,4.75196 8.49094,-6.21802 11.41688,-15.52616 12.73047,-25.00977 2.49653,-18.02423 0.84571,-36.25583 1.22461,-54.39453 0.082,-3.92593 -1.16333,-5.67483 -5.36328,-4.33789 -2.35559,0.74982 -4.84896,1.19516 -7.31445,1.44726 -13.87887,1.4191 -27.85977,2.13947 -41.62891,4.25196 -14.81875,2.27353 -28.5018,7.79635 -39.34375,18.78515 -5.99636,6.07761 -10.24353,12.99298 -13.34766,21.19336 -8.45639,22.34018 -10.10648,44.50995 0.84961,66.10157 12.24984,24.14138 33.6731,36.90743 59.38477,41.91796 23.79733,4.63752 46.26611,-1.09281 66.82422,-13.625 13.97797,-8.52097 26.17868,-19.24511 36.16211,-32.33007 5.49887,-7.20727 11.88989,-13.62899 16.52539,-21.65039 2.72342,-4.71258 7.25714,-8.60117 10.05664,-13.53516 9.90121,-17.45093 20.45972,-34.45185 27.22461,-53.64063 8.0079,-22.7147 2.87073,-42.82323 -11.10742,-59.01757 -9.77604,-11.32596 -22.75279,-19.06056 -36.6211,-25.01368 -13.43,-5.76496 -26.0985,-13.09906 -39.49023,-19.01562 -14.71377,-6.50064 -29.39072,-13.03812 -44.37891,-18.89258 -16.41931,-6.41351 -33.06537,-12.14282 -49.93359,-17.23437 -13.45389,-4.06104 -26.9386,-8.02231 -40.50781,-12.05664 -0.56805,-5.26575 0.74444,-10.48798 0.92578,-15.76563 0.48279,-14.05338 -2.32007,-27.3446 -8.9336,-39.88867 -9.30869,-17.65631 -23.92962,-28.81687 -42.66601,-34.33399 -12.483,-3.67572 -25.3356,-3.425 -37.79688,1.11133 -2.01959,0.73519 -3.27395,0.28681 -4.84765,-1.15234 -4.99975,-4.57207 -9.55542,-9.86506 -14.95313,-13.70117 -10.23672,-7.27527 -20.75488,-14.81585 -32.55273,-19.02149 -16.55935,-5.90298 -33.83887,-10.37962 -51.61133,-10.16406 z m 97.13672,73.44141 c 0.88243,0.25132 1.58169,1.11412 2.07617,2.64062 0.51049,1.57596 1.05982,3.13999 1.5918,4.70899 2.19882,6.18363 2.68987,11.76586 1.9746,17.43554 -0.63052,4.99808 -3.87533,8.15258 -8.32421,8.38867 -4.30787,0.2286 -7.9394,-2.62963 -9.19727,-7.23828 -2.01794,-7.39303 2.46914,-20.26437 8.69922,-24.9082 1.23156,-0.91801 2.29725,-1.27866 3.17969,-1.02734 z m -339.8125,77.76171 c 8.67206,1.46411 15.94195,3.92776 21.82031,9.66602 5.35843,5.23077 7.73957,13.88987 4.96094,18.79102 -1.34933,2.38001 -3.21585,3.69583 -5.92578,3.96093 -9.30396,0.91013 -16.85037,-2.24706 -23.05469,-9.27734 -4.31888,-4.89386 -6.49554,-10.7049 -8.40039,-16.71875 -1.05539,-3.33219 0.003,-5.60049 3.63867,-6.06836 2.29728,-0.29553 4.63929,-0.24753 6.96094,-0.35352 z m -82.3086,59.94141 c -1.62378,23.56315 2.34247,45.10684 13.7461,64.77149 -1.33069,2.58209 -3.51669,2.71674 -5.66602,2.74414 -11.48135,0.14609 -22.92119,-0.58827 -34.33398,-1.78321 -2.68268,-0.28085 -5.32596,-0.40023 -7.7461,1.10743 -1.99973,1.66644 -2.64362,3.2738 -2.51367,4.94921 1.18948,15.33756 -2.44656,30.46494 -2.05273,45.72071 0.266,10.30362 5.06565,19.01477 11.85351,26.76172 4.37428,4.9924 9.89799,7.47054 16.00196,9.36718 7.07819,2.19928 14.84927,0.29022 19.17187,-5.67578 6.32868,-8.73502 12.35376,-17.69284 18.45117,-26.59375 1.44664,-2.11182 2.04919,-5.25165 5.83008,-3.75195 3.91319,1.5523 8.03421,2.84247 8.29297,8.08789 0.18341,3.71784 -1.70699,6.73383 -3.55078,9.69727 -5.77259,9.2778 -11.01704,18.96866 -17.60352,27.63476 -8.62719,11.35123 -19.91011,13.50046 -34.15234,5.66016 -27.21183,-14.98013 -42.98584,-39.32169 -52.39453,-68.07227 -7.57698,-23.15341 -1.32906,-43.75922 14.4082,-61.43555 8.35846,-9.38834 18.21889,-17.29061 28.54883,-24.69531 7.21358,-5.1708 14.95336,-9.12008 23.70898,-14.49414 z m 205.55274,32.2832 c 8.87437,0.37418 17.62362,3.20953 26.15429,8.39063 7.90313,4.79993 14.25018,11.82999 18.69922,20.24219 6.37131,12.04679 9.54721,24.94946 8.38477,38.45117 -1.59876,18.56928 -7.33216,35.33606 -20.89844,49.35156 -11.69037,12.07761 -25.21524,18.93177 -41.6543,19.45508 -8.43308,0.2685 -16.78546,-2.06104 -24.31445,-6.3125 -6.57114,-3.71057 -12.27451,-8.51107 -17.12305,-14.30859 -6.41706,-9.31109 -10.67413,-18.88412 -13.01953,-29.14258 -3.27969,-14.34506 -1.36514,-28.41049 4.0625,-41.95508 6.5495,-16.34393 16.85706,-29.55998 32.80664,-37.79688 9.02849,-4.66257 18.02797,-6.74917 26.90235,-6.375 z m 178.9375,4.28125 c 9.96359,-0.29538 19.22579,3.02994 27.59765,9.48047 8.85422,6.82223 14.36701,15.96268 20.60743,24.70899 7.37912,13.01461 11.35547,26.39304 11.00195,40.56836 -0.29486,11.82651 -2.36875,23.62225 -10.95508,32.76758 -9.04618,9.6351 -21.77653,16.57122 -36.00391,12.86718 -21.27079,-5.53775 -34.94192,-19.01659 -43.56445,-38.74804 -7.55398,-17.28635 -9.22399,-34.70585 -3.78906,-52.87891 4.70957,-15.74738 18.83176,-28.2832 35.10547,-28.76563 z M 442.27734,711.72461 c 1.452,-0.008 3.08602,0.40317 4.86133,1.29101 12.82886,6.41583 26.92425,9.58237 39.59766,16.27735 2.83459,1.49743 5.25622,3.51526 5.5039,6.55664 0.22638,2.77997 -2.87682,3.86451 -4.93554,5.08594 -2.71289,1.60956 -5.80592,2.42633 -8.9336,2.97265 -14.34079,2.90668 -26.08661,-1.66122 -36.76953,-9.26562 -4.1139,-2.92847 -6.17739,-7.73133 -6.27539,-13.05274 -0.11128,-6.04282 2.59521,-9.84112 6.95117,-9.86523 z m 124.59961,4.57031 c 7.15027,-0.28479 10.49261,3.96267 8.26953,10.79883 -1.26511,3.89038 -3.39343,7.35971 -6.67773,9.75195 -15.03357,10.95011 -31.01569,13.76981 -48.1875,5.14649 -2.07483,-1.04193 -4.70862,-1.78894 -4.5293,-4.62696 0.15619,-2.47281 2.09864,-3.99037 4.30274,-5.10546 11.62192,-5.87976 23.74466,-10.33345 36.51367,-12.97657 4.06189,-0.7807 6.85037,-2.85046 10.30859,-2.98828 z"
   sodipodi:nodetypes="csssssssssscssssssssssscsssssssscsssssscssssssssssssssscssssssssssssssssscsscsssssccsscsssscssssccsssssssssccsssssssccsssssssccscssssccssccssssscssssssssssssssscsssssscsssscssccsscssssscssssscccccsccssscssssssssscssssssscsssssscssssssssssscssssssssscs" />
<path
   fill="#000000"
   opacity="1.000000"
   stroke="none"
   d=" M682.626404,194.259232   C672.356750,190.649811 663.777527,184.267197 654.129456,180.404694   C636.420288,173.315033 619.113892,165.141998 600.405762,160.559494   C583.144653,156.331421 565.996277,151.643677 548.421082,148.898605   C538.907593,147.412659 529.316895,146.389343 519.740356,145.346497   C508.476105,144.119873 497.130157,143.610519 485.849670,144.388489   C468.964996,145.552902 452.147186,147.241837 435.393524,150.087921   C416.979065,153.216156 399.175629,158.491638 381.215240,163.240784   C370.447968,166.087906 360.329742,170.907227 349.932037,174.877609   C340.266113,178.568604 331.549774,184.198929 322.168213,188.231689   C303.337311,196.326294 287.063293,208.411118 270.081116,219.386795   C255.147354,229.038544 241.469116,240.455368 228.210678,252.264084   C217.485321,261.816711 207.101639,271.811584 197.188705,282.203888   C182.770706,297.319153 169.066849,313.106903 154.743088,328.325775   C151.323822,331.958740 148.024307,336.076813 145.309555,340.483185   C144.272903,342.165741 143.324020,344.397186 138.949295,344.654938   C144.597763,337.974182 145.066589,330.108368 149.187332,323.736969   C155.497299,313.980621 161.790405,304.213348 168.116089,294.467224   C174.283569,284.964874 181.485260,276.212677 188.076248,267.026031   C194.201263,258.488861 201.388992,250.888596 208.427094,243.232590   C215.012405,236.069107 221.504044,228.656891 229.258942,222.608444   C229.653000,222.301086 230.128998,222.072952 230.455093,221.708054   C238.793625,212.377411 249.423569,205.635040 258.337921,196.974564   C260.580658,194.795700 263.422943,193.879791 265.811615,192.105545   C279.291962,182.092880 293.155914,172.520309 307.942108,164.670761   C321.837982,157.293854 335.876984,150.095139 350.593842,144.193176   C361.368347,139.872253 372.286621,136.058029 383.240570,132.361313   C396.908020,127.748848 410.962189,124.497108 425.121582,121.572113   C437.352112,119.045547 449.726471,117.801178 462.041046,116.225082   C480.885284,113.813286 499.902893,113.961731 518.840210,115.479645   C530.573242,116.420105 542.327148,117.597740 553.932739,119.511124   C569.776062,122.123154 585.401001,125.888390 600.877930,130.240128   C614.815674,134.159103 628.243103,139.535294 641.641846,144.867889   C652.820007,149.316727 663.497314,155.044708 674.318726,160.364410   C690.909729,168.520477 706.269104,178.667130 721.450623,189.181641   C730.427734,195.399109 739.186035,201.868652 747.628784,208.743378   C757.506470,216.786591 767.040771,225.235504 776.214600,234.111496   C784.436584,242.066711 792.058044,250.624390 799.274231,259.367645   C806.095093,267.631989 813.098694,275.885406 818.935608,285.058319   C822.448914,290.579590 826.862732,295.656097 830.308105,301.305359   C836.236938,311.026642 843.275940,320.074829 847.627930,330.766541   C849.540161,335.464539 852.394287,339.779175 854.795898,344.221771   C853.192261,345.568207 852.351135,344.583038 851.694397,343.645905   C841.071899,328.487061 827.335449,315.980133 815.803345,301.574615   C812.049683,296.885498 807.581177,292.561005 802.865662,288.540680   C798.926453,285.182220 796.075317,280.458405 792.204773,276.794159   C777.293030,262.677277 762.232361,248.703125 745.981873,236.144699   C736.677856,228.954514 726.790100,222.492569 716.950806,216.029053   C705.731506,208.659012 694.273682,201.652008 682.626404,194.259232  z"
   id="path120" />
<path
   fill="#000000"
   opacity="1.000000"
   stroke="none"
   d=" M414.659180,515.844299   C407.876251,518.796448 401.056854,516.764404 398.623505,511.340515   C396.161896,505.853668 398.279785,497.462128 402.682770,495.256653   C408.845245,492.169830 416.775635,493.847443 419.581696,498.831421   C423.485840,505.765686 421.982117,511.286102 414.659180,515.844299  z"
   id="path122" />
<path
   fill="#000000"
   opacity="1.000000"
   stroke="none"
   d=" M609.415405,502.951172   C616.265869,502.920837 622.086731,507.183136 623.155762,512.637756   C624.236023,518.149719 621.516724,522.699402 615.811462,525.308655   C611.415161,527.319275 608.067261,525.462097 605.024170,522.598755   C598.438904,516.402588 600.573303,506.080566 609.415405,502.951172  z"
   id="path124" />
</svg>
